Coordinates
version=1
nRows=43
nColumns=12
inDegrees=yes

Units are S.I. units (second, meters, Newtons, ...)
Angles are in degrees

endheader
time	SC_y	SC_z	SC_x	AC_y	AC_z	AC_x	GH_y	GH_z	GH_yy	EL_x	PS_y
       0.0              -58.38           3.25          38.57          40.41         -17.68         -10.39          113.2         0.2905          39.98          130.5          140.6
  0.005541              -58.38          3.252          38.57          40.41         -17.68         -10.39          113.2          0.293          39.96          130.4          140.5
   0.01108              -58.37          3.254          38.56          40.41         -17.67         -10.38          113.1         0.2956          39.93          130.4          140.5
   0.01662              -58.37          3.257          38.55          40.41         -17.67         -10.38          113.1         0.2984          39.91          130.4          140.5
   0.02216              -58.37           3.26          38.55          40.41         -17.66         -10.38          113.1         0.3014          39.89          130.4          140.5
    0.0277              -58.36          3.262          38.54          40.41         -17.66         -10.38          113.1         0.3045          39.86          130.4          140.5
   0.03324              -58.36          3.265          38.53          40.41         -17.65         -10.37          113.0         0.3079          39.84          130.4          140.4
   0.03878              -58.35          3.269          38.53          40.41         -17.65         -10.37          113.0         0.3115          39.81          130.4          140.4
   0.04432              -58.35          3.272          38.52          40.41         -17.64         -10.37          113.0         0.3154          39.78          130.4          140.4
   0.04986              -58.34          3.276          38.51          40.41         -17.63         -10.36          112.9         0.3195          39.74          130.3          140.4
   0.05541              -58.34           3.28           38.5          40.41         -17.63         -10.36          112.9          0.324          39.71          130.3          140.3
   0.06095              -58.33          3.284          38.49          40.41         -17.62         -10.35          112.9         0.3288          39.67          130.3          140.3
   0.06649              -58.32          3.289          38.48          40.41         -17.61         -10.35          112.8         0.3339          39.63          130.3          140.3
   0.07203              -58.32          3.294          38.47          40.41          -17.6         -10.34          112.8         0.3395          39.58          130.3          140.3
   0.07757              -58.31          3.299          38.45          40.41         -17.59         -10.34          112.7         0.3456          39.53          130.3          140.2
   0.08311               -58.3          3.305          38.44          40.42         -17.58         -10.33          112.7         0.3521          39.48          130.2          140.2
   0.08865              -58.29          3.311          38.42          40.42         -17.57         -10.32          112.6         0.3592          39.42          130.2          140.1
   0.09419              -58.28          3.318          38.41          40.42         -17.56         -10.32          112.5          0.367          39.36          130.2          140.1
   0.09973              -58.27          3.326          38.39          40.42         -17.54         -10.31          112.5         0.3754          39.29          130.1          140.0
    0.1053              -58.26          3.334          38.37          40.42         -17.53          -10.3          112.4         0.3847          39.22          130.1          140.0
    0.1108              -58.24          3.343          38.35          40.42         -17.51         -10.29          112.3         0.3949          39.14          130.1          139.9
    0.1164              -58.23          3.353          38.32          40.42         -17.49         -10.28          112.2         0.4061          39.04          130.0          139.8
    0.1219              -58.21          3.364           38.3          40.42         -17.47         -10.27          112.1         0.4185          38.95          130.0          139.8
    0.1274               -58.2          3.377          38.27          40.42         -17.45         -10.26          112.0         0.4322          38.83          129.9          139.7
     0.133              -58.18           3.39          38.24          40.42         -17.43         -10.24          111.9         0.4474          38.71          129.9          139.6
    0.1385              -58.15          3.406           38.2          40.43          -17.4         -10.23          111.7         0.4644          38.58          129.8          139.5
    0.1441              -58.13          3.423          38.16          40.43         -17.37         -10.21          111.6         0.4835          38.42          129.7          139.4
    0.1496               -58.1          3.442          38.11          40.43         -17.33         -10.19          111.4         0.5049          38.25          129.6          139.2
    0.1551              -58.07          3.463          38.06          40.43         -17.29         -10.17          111.2         0.5291          38.05          129.6          139.1
    0.1607              -58.03          3.488           38.0          40.43         -17.25         -10.14          110.9         0.5566          37.83          129.5          138.9
    0.1662              -57.99          3.516          37.94          40.44          -17.2         -10.11          110.7          0.588          37.58          129.3          138.7
    0.1718              -57.95          3.548          37.86          40.44         -17.14         -10.08          110.4          0.624          37.29          129.2          138.5
    0.1773              -57.89          3.586          37.77          40.44         -17.07         -10.04          110.0         0.6656          36.95          129.0          138.3
    0.1828              -57.83          3.629          37.67          40.45         -16.99         -9.995          109.6         0.7139          36.57          128.9          138.0
    0.1884              -57.76           3.68          37.55          40.45          -16.9         -9.942          109.1         0.7705          36.11          128.6          137.6
    0.1939              -57.67          3.739          37.41          40.46         -16.79          -9.88          108.6         0.8371          35.57          128.4          137.2
    0.1995              -57.57           3.81          37.24          40.47         -16.67         -9.807          107.9         0.9163          34.94          128.1          136.7
     0.205              -57.45          3.895          37.04          40.47         -16.51         -9.718          107.1          1.011          34.17          127.7          136.2
    0.2105               -57.3          3.998          36.79          40.48         -16.33         -9.611          106.1          1.126          33.25          127.3          135.5
    0.2161              -57.11          4.124          36.49           40.5          -16.1         -9.481          104.9          1.266          32.12          126.8          134.6
    0.2216              -56.89          4.279          36.13          40.51         -15.82          -9.32          103.4           1.44          30.72          126.1          133.6
    0.2272              -56.61          4.472          35.67          40.53         -15.47         -9.119          101.6          1.656          28.98          125.3          132.2
    0.2327              -56.26          4.716          35.09          40.56         -15.03         -8.866          99.31          1.928          26.79          124.3          130.6
